<?xml version="1.0" standalone="no"?>
<!DOCTYPE svg PUBLIC "-//W3C//DTD SVG 20010904//EN"
 "http://www.w3.org/TR/2001/REC-SVG-20010904/DTD/svg10.dtd">
<svg version="1.0" xmlns="http://www.w3.org/2000/svg"
 width="700.000000pt" height="700.000000pt" viewBox="0 0 700.000000 700.000000"
 preserveAspectRatio="xMidYMid meet">
<metadata>
Created by potrace 1.14, written by Peter Selinger 2001-2017
</metadata>
<g transform="translate(0.000000,700.000000) scale(0.100000,-0.100000)"
fill="#000000" stroke="none">
<path d="M3305 6769 c-163 -22 -365 -94 -517 -186 -81 -49 -233 -168 -233
-183 0 -5 33 -42 73 -84 l72 -76 69 58 c129 108 272 179 460 230 84 22 117 25
261 26 101 0 188 -4 225 -12 207 -45 382 -129 527 -254 l57 -49 43 44 c113
116 112 115 97 129 -184 176 -439 302 -710 351 -87 16 -322 19 -424 6z"/>
<path d="M3395 6338 c-160 -19 -322 -84 -450 -181 -37 -29 -70 -57 -71 -62 -2
-6 30 -45 70 -88 l73 -77 48 39 c196 162 483 198 722 91 64 -29 131 -72 172
-110 l23 -23 74 79 c40 44 73 82 74 86 0 11 -101 88 -170 129 -161 95 -373
139 -565 117z"/>
<path d="M3398 5895 c-82 -21 -208 -90 -208 -114 0 -4 33 -41 73 -84 l73 -76
35 24 c38 27 115 45 162 38 36 -6 114 -41 123 -55 9 -14 156 141 150 157 -7
19 -94 73 -153 95 -73 27 -182 34 -255 15z"/>
<path d="M474 5461 c-102 -25 -196 -108 -233 -206 l-22 -58 0 -1908 c0 -1405
3 -1920 12 -1951 26 -97 88 -169 188 -216 l56 -26 1167 -1 c789 0 1168 -3
1168 -10 0 -6 -11 -55 -25 -110 -14 -54 -27 -108 -30 -119 -2 -12 -12 -48 -21
-81 -9 -33 -17 -67 -19 -75 -7 -35 -46 -188 -57 -222 -13 -43 8 -40 -230 -38
-98 1 -128 -2 -129 -12 -1 -7 -2 -57 -3 -110 l-1 -98 25 -1 c31 -1 2361 -1
2376 0 6 1 10 40 9 109 l0 107 -35 2 c-19 1 -99 2 -176 2 l-142 1 -17 67 c-9
38 -18 75 -20 83 -2 8 -31 123 -64 254 -34 132 -59 242 -56 245 3 3 529 5
1168 6 l1162 0 55 26 c98 47 151 105 184 203 15 44 17 219 16 1955 0 1048 -4
1923 -9 1943 -20 86 -101 180 -190 222 l-46 21 -3015 2 c-1658 0 -3029 -2
-3046 -6z"/>
</g>
</svg>
